<svg width="350" height="263" viewBox="0 0 350 263" xmlns="http://www.w3.org/2000/svg"><g fill="none" fill-rule="evenodd"><path fill="#FAFAFA" d="M0 0h350v263H0z"/><g fill-rule="nonzero"><path d="M244.24 139.92h-6.07a15.27 15.27 0 00-15-18.26 15.26 15.26 0 00-15 18.26h-64.75a15.27 15.27 0 00-15-18.26 15.26 15.26 0 00-15 18.26h-3c-.1 0-.22 0-.32.02 0 0-.34.03-.88.03-3.3 0-7.34-.97-7.83-5.6l-.03-.25c-.1-.5-2.24-12.42 7.47-18.02.1-.06 10.1-5.69 27.35-8.54a3.07 3.07 0 001.45-.66c.22-.18 21.47-17.57 45.43-18.64.05 0 4.92-.22 11.61-.22 9.8 0 23.32.44 32.24 2.55 2.39.68 4.98 1.63 5.56 2.04l.19.14c.04.03 4.18 2.82 8.23 8.68 5.4 7.82 8.09 17.13 8 27.66v.07c.04 2.45-.76 9.54-4.64 10.74m-12.41 0a9.23 9.23 0 01-8.67 6.04 9.23 9.23 0 01-9.22-9.13 9.19 9.19 0 019.22-9.13c5.08 0 9.22 4.1 9.22 9.13a9 9 0 01-.55 3.09m-94.75 0a9.23 9.23 0 01-8.68 6.04 9.23 9.23 0 01-9.22-9.13 9.19 9.19 0 019.22-9.13c5.09 0 9.22 4.1 9.22 9.13 0 1.08-.19 2.12-.54 3.09m117.9-10.8c.21-27.77-17.26-40.24-18.86-41.32-1.79-1.31-5.9-2.56-7.61-3.04a3.54 3.54 0 00-.12-.03C218.9 82.47 204.8 82 194.67 82c-6.84 0-11.68.21-11.89.22-23.9 1.07-44.45 16.39-48.4 19.52-17.94 3.08-28.18 8.88-28.62 9.13-12.97 7.5-10.73 22.5-10.42 24.25.9 8.03 7.75 10.9 13.88 10.9.62 0 1.09-.04 1.34-.06h5.63a15.36 15.36 0 0024.45 0h70.3c2.9 3.8 7.43 6.04 12.23 6.04 4.8 0 9.32-2.23 12.22-6.04h9.25c.23 0 .46-.02.68-.07 9.65-2.18 9.69-15.74 9.68-16.77" fill="#2D3737"/><path d="M116.53 89.62c-.9 4.48-2.48 4.51-3.55.07l-3.03-12.64-12.57-2.51c-4.48-.9-4.51-2.49-.07-3.55l12.64-3.04 3.03-12.64c1.07-4.44 2.66-4.41 3.55.08l2.52 12.56L131.69 71c4.44 1.06 4.41 2.65-.08 3.55l-12.56 2.51-2.52 12.57zm20.24 12.98c-.75 4.5-2.16 4.53-3.15.09l-1.51-6.8-6.71-1.12c-4.5-.75-4.53-2.16-.09-3.15l6.8-1.5 1.5-6.8c1-4.46 2.4-4.42 3.16.08l1.12 6.71 6.8 1.51c4.45 1 4.41 2.4-.1 3.15l-6.7 1.12-1.12 6.71zm-33.36-2.05c-.82 4.53-2.47 4.61-3.69.16l-.3-1.13-.97-.17c-4.53-.83-4.61-2.48-.16-3.69l1.13-.3.3-1.13c1.22-4.45 2.87-4.37 3.7.16l.17.96 1.12.31c4.45 1.21 4.37 2.86-.16 3.69l-.96.17-.18.97zM240.53 98.62c-.9 4.48-2.48 4.51-3.55.07l-3.03-12.64-12.57-2.51c-4.48-.9-4.51-2.49-.07-3.55l12.64-3.04 3.03-12.64c1.07-4.44 2.66-4.41 3.55.08l2.52 12.56L255.69 80c4.44 1.06 4.41 2.65-.08 3.55l-12.56 2.51-2.52 12.57zm21.18 14.09c-.95 4.39-2.47 4.39-3.42 0l-1.41-6.59-6.59-1.41c-4.39-.95-4.39-2.47 0-3.42l6.59-1.41 1.41-6.59c.95-4.39 2.47-4.39 3.42 0l1.41 6.59 6.59 1.41c4.39.95 4.39 2.47 0 3.42l-6.59 1.41-1.41 6.59zm-34.3-2.16c-.82 4.53-2.47 4.61-3.69.16l-.3-1.13-.97-.17c-4.53-.83-4.61-2.48-.16-3.69l1.13-.3.3-1.13c1.22-4.45 2.87-4.37 3.7.16l.17.96 1.12.31c4.45 1.21 4.37 2.86-.16 3.69l-.96.17-.18.97z" fill="#CCC"/></g><path d="M98.57 179h1.97v-11.2h-1.97V179zm4.73 0h1.94v-4.77c0-1.3.74-2.1 1.8-2.1 1.08 0 1.72.74 1.72 2.05V179h1.94v-4.77c0-1.36.75-2.1 1.8-2.1 1.1 0 1.72.73 1.72 2.07v4.8h1.93v-5.4c0-2.06-1.12-3.22-2.96-3.22a3.4 3.4 0 00-2.85 1.48 2.68 2.68 0 00-2.52-1.48c-1.3 0-2.04.7-2.58 1.45v-1.28h-1.94V179zm17.64.18c1.3 0 2.17-.55 2.75-1.24V179h1.89v-5c0-1.11-.3-2-.92-2.62-.59-.6-1.53-.94-2.8-.94a7.2 7.2 0 00-3.18.69l.51 1.52a5.88 5.88 0 012.42-.53c1.36 0 2.1.64 2.1 1.84v.2a7.06 7.06 0 00-2.28-.34c-2 0-3.39.83-3.48 2.53v.22c0 1.7 1.4 2.6 2.99 2.6zm.54-1.41c-.87 0-1.56-.41-1.64-1.14v-.17c0-.88.73-1.41 1.98-1.41.76 0 1.42.14 1.92.33v.58c0 1.07-.98 1.8-2.26 1.8zm10.18 3.82c1.52 0 2.7-.37 3.47-1.13.7-.7 1.07-1.76 1.07-3.19v-6.72h-1.94v1.27a3.65 3.65 0 00-2.96-1.44 3.8 3.8 0 00-3.83 3.73v.27a3.8 3.8 0 003.83 3.95c1.4 0 2.28-.64 2.98-1.55v.65c0 1.7-.94 2.6-2.67 2.6-1.15 0-2.1-.34-3.01-.9l-.72 1.45c1.09.66 2.38 1.01 3.78 1.01zm.16-4.91c-1.28 0-2.31-.87-2.4-2.15v-.2c0-1.4 1.05-2.32 2.4-2.32 1.28 0 2.38.86 2.47 2.15v.2c0 1.38-1.13 2.32-2.47 2.32zm10.68 2.51c1.56 0 2.66-.62 3.46-1.58l-1.14-1.01c-.67.66-1.34 1-2.28 1-1.25 0-2.23-.76-2.44-2.14h6.21l.03-.36v-.18c0-2.43-1.36-4.54-4.04-4.54-2.35 0-4.03 1.87-4.13 4.18v.25c0 2.6 1.89 4.38 4.33 4.38zm-2.41-5c.17-1.32 1-2.23 2.19-2.23 1.28 0 2.02.98 2.14 2.22h-4.33zm11.1 4.97c1.7 0 3.04-.82 3.13-2.47v-.22c0-1.45-1.27-2.03-2.46-2.41l-.67-.22c-.77-.25-1.39-.52-1.39-1.03v-.03c0-.48.43-.84 1.18-.84.7 0 1.57.3 2.39.8l.77-1.37c-.9-.6-2.05-.96-3.1-.96-1.63 0-2.92.9-3.01 2.4v.2c0 1.43 1.07 2 2.18 2.35l.97.3c.76.23 1.37.48 1.37 1.02v.03c0 .56-.48.91-1.31.91-.86 0-1.84-.35-2.77-1.04l-.86 1.32a5.93 5.93 0 003.58 1.26zm13.94.03a4.42 4.42 0 004.52-4.2v-.23c0-2.42-1.9-4.38-4.49-4.38a4.42 4.42 0 00-4.5 4.2l-.01.24c0 2.4 1.9 4.37 4.48 4.37zm.03-1.7a2.59 2.59 0 01-2.57-2.53v-.2c0-1.47.99-2.69 2.54-2.69 1.46 0 2.5 1.14 2.59 2.55v.2c0 1.46-1 2.68-2.56 2.68zm6.46 1.51h1.94v-4.77c0-1.31.78-2.1 1.9-2.1 1.16 0 1.81.76 1.81 2.07v4.8h1.94v-5.4c0-1.94-1.1-3.22-3.01-3.22-1.31 0-2.1.68-2.64 1.47v-1.3h-1.94V179zm17.56.14c.73 0 1.26-.16 1.74-.43v-1.58c-.38.19-.77.29-1.2.29-.66 0-1.04-.3-1.04-1.06v-4.14h2.27v-1.67h-2.27v-2.32h-1.94v2.32h-1.07v1.67h1.07v4.44c0 1.86 1.01 2.48 2.44 2.48zm3.74-.14h1.94v-4.77c0-1.31.78-2.1 1.9-2.1 1.15 0 1.8.76 1.8 2.07v4.8h1.94v-5.4c0-1.94-1.1-3.22-3-3.22-1.32 0-2.1.68-2.64 1.47v-4.53h-1.94V179zm13.8.2c1.54 0 2.65-.63 3.45-1.6l-1.14-1c-.67.66-1.34 1-2.29 1-1.24 0-2.22-.76-2.43-2.14h6.21l.03-.54c0-2.43-1.36-4.54-4.05-4.54-2.34 0-4.02 1.87-4.12 4.18v.25c0 2.6 1.88 4.38 4.33 4.38zm-2.42-5.02c.17-1.3 1-2.22 2.19-2.22 1.28 0 2.01.98 2.14 2.22h-4.33zm15.04 4.88h1.72l1.9-5.77 1.9 5.77h1.74l2.77-8.5h-1.95l-1.73 5.78-1.87-5.82h-1.67l-1.87 5.82-1.7-5.79h-1.98l2.74 8.51zm13.85.12c1.3 0 2.18-.55 2.75-1.24V179h1.9v-5c0-1.11-.3-2-.92-2.62-.6-.6-1.54-.94-2.8-.94a7.2 7.2 0 00-3.18.69l.5 1.52a5.88 5.88 0 012.42-.53c1.36 0 2.1.64 2.1 1.84v.2a7.06 7.06 0 00-2.27-.34c-2 0-3.4.83-3.48 2.53l-.01.22c0 1.7 1.4 2.6 3 2.6zm.55-1.41c-.93 0-1.65-.47-1.65-1.28v-.03c0-.88.73-1.41 1.98-1.41.77 0 1.43.14 1.92.33v.58c0 1.07-.97 1.8-2.25 1.8zm9.76-.95l-2.39-6.27h-2.08l3.52 8.47c-.32.72-.65.96-1.2.96-.4 0-.78-.13-1.13-.32l-.66 1.44c.6.32 1.2.5 2 .5 1.36 0 2.11-.63 2.78-2.36l3.36-8.69h-2.01l-2.2 6.27zm6.54-1.37h1.07l.6-7.09v-.56h-2.28v.56l.61 7.09zm-.53 3.55v-2.2h2.13v2.2h-2.13z" fill="#2D3737" fill-rule="nonzero"/></g></svg>